<mxfile host="app.diagrams.net" modified="2021-11-10T16:00:45.940Z" agent="5.0 (Macintosh; Intel Mac OS X 10_15_7) AppleWebKit/537.36 (KHTML, like Gecko) Chrome/95.0.4638.69 Safari/537.36" etag="39wEPdtllT1Ei4RhPc2T" version="15.7.3" type="github">
  <diagram id="wZb2vdvViGBkcBR3bhuk" name="Page-1">
    <mxGraphModel dx="946" dy="1760" grid="1" gridSize="10" guides="1" tooltips="1" connect="1" arrows="1" fold="1" page="1" pageScale="1" pageWidth="827" pageHeight="1169" math="0" shadow="0">
      <root>
        <mxCell id="0" />
        <mxCell id="1" parent="0" />
        <mxCell id="RBcyhpeaUslQ7d-_BxSG-1" value="PortmonePayment" style="shape=module;align=left;spacingLeft=20;align=center;verticalAlign=top;" vertex="1" parent="1">
          <mxGeometry x="180" y="20" width="480" height="320" as="geometry" />
        </mxCell>
        <mxCell id="RBcyhpeaUslQ7d-_BxSG-4" value="API" style="html=1;" vertex="1" parent="1">
          <mxGeometry x="304" y="210" width="110" height="50" as="geometry" />
        </mxCell>
        <mxCell id="RBcyhpeaUslQ7d-_BxSG-17" value="adding succes order to database" style="edgeStyle=orthogonalEdgeStyle;rounded=0;orthogonalLoop=1;jettySize=auto;html=1;exitX=0.5;exitY=0;exitDx=0;exitDy=0;entryX=0.5;entryY=1;entryDx=0;entryDy=0;" edge="1" parent="1" source="RBcyhpeaUslQ7d-_BxSG-5" target="RBcyhpeaUslQ7d-_BxSG-10">
          <mxGeometry relative="1" as="geometry" />
        </mxCell>
        <mxCell id="RBcyhpeaUslQ7d-_BxSG-5" value="Controllers" style="html=1;" vertex="1" parent="1">
          <mxGeometry x="304" y="60" width="110" height="50" as="geometry" />
        </mxCell>
        <mxCell id="RBcyhpeaUslQ7d-_BxSG-8" value="Checkout page" style="html=1;" vertex="1" parent="1">
          <mxGeometry x="45" y="160" width="110" height="50" as="geometry" />
        </mxCell>
        <mxCell id="RBcyhpeaUslQ7d-_BxSG-10" value="Database" style="html=1;" vertex="1" parent="1">
          <mxGeometry x="304" y="-90" width="110" height="50" as="geometry" />
        </mxCell>
        <mxCell id="RBcyhpeaUslQ7d-_BxSG-11" value="Portmone service" style="html=1;" vertex="1" parent="1">
          <mxGeometry x="304" y="400" width="110" height="50" as="geometry" />
        </mxCell>
        <mxCell id="RBcyhpeaUslQ7d-_BxSG-12" value="order data" style="html=1;verticalAlign=bottom;endArrow=block;rounded=0;entryX=0.25;entryY=0;entryDx=0;entryDy=0;exitX=0.25;exitY=1;exitDx=0;exitDy=0;" edge="1" parent="1" source="RBcyhpeaUslQ7d-_BxSG-5" target="RBcyhpeaUslQ7d-_BxSG-4">
          <mxGeometry width="80" relative="1" as="geometry">
            <mxPoint x="155" y="170" as="sourcePoint" />
            <mxPoint x="240" y="170" as="targetPoint" />
          </mxGeometry>
        </mxCell>
        <mxCell id="RBcyhpeaUslQ7d-_BxSG-13" value="pass order data" style="html=1;verticalAlign=bottom;endArrow=block;rounded=0;exitX=0.25;exitY=1;exitDx=0;exitDy=0;entryX=0.25;entryY=0;entryDx=0;entryDy=0;" edge="1" parent="1" source="RBcyhpeaUslQ7d-_BxSG-4" target="RBcyhpeaUslQ7d-_BxSG-11">
          <mxGeometry x="-0.5333" width="80" relative="1" as="geometry">
            <mxPoint x="370" y="310" as="sourcePoint" />
            <mxPoint x="450" y="310" as="targetPoint" />
            <Array as="points" />
            <mxPoint as="offset" />
          </mxGeometry>
        </mxCell>
        <mxCell id="RBcyhpeaUslQ7d-_BxSG-14" value="return requested" style="html=1;verticalAlign=bottom;endArrow=open;dashed=1;endSize=8;rounded=0;entryX=0.75;entryY=1;entryDx=0;entryDy=0;exitX=0.75;exitY=0;exitDx=0;exitDy=0;" edge="1" parent="1" source="RBcyhpeaUslQ7d-_BxSG-11" target="RBcyhpeaUslQ7d-_BxSG-4">
          <mxGeometry x="-0.3333" relative="1" as="geometry">
            <mxPoint x="450" y="310" as="sourcePoint" />
            <mxPoint x="370" y="310" as="targetPoint" />
            <mxPoint as="offset" />
          </mxGeometry>
        </mxCell>
        <mxCell id="RBcyhpeaUslQ7d-_BxSG-15" value="return succes/error" style="html=1;verticalAlign=bottom;endArrow=open;dashed=1;endSize=8;rounded=0;entryX=0.75;entryY=1;entryDx=0;entryDy=0;exitX=0.75;exitY=0;exitDx=0;exitDy=0;" edge="1" parent="1" source="RBcyhpeaUslQ7d-_BxSG-4" target="RBcyhpeaUslQ7d-_BxSG-5">
          <mxGeometry x="-0.4" relative="1" as="geometry">
            <mxPoint x="240" y="198" as="sourcePoint" />
            <mxPoint x="160" y="200" as="targetPoint" />
            <mxPoint as="offset" />
          </mxGeometry>
        </mxCell>
        <mxCell id="RBcyhpeaUslQ7d-_BxSG-16" value="make an order" style="html=1;verticalAlign=bottom;endArrow=block;rounded=0;entryX=0;entryY=0.25;entryDx=0;entryDy=0;exitX=0.5;exitY=0;exitDx=0;exitDy=0;" edge="1" parent="1" source="RBcyhpeaUslQ7d-_BxSG-8" target="RBcyhpeaUslQ7d-_BxSG-5">
          <mxGeometry width="80" relative="1" as="geometry">
            <mxPoint x="120" y="80" as="sourcePoint" />
            <mxPoint x="300" y="84.5" as="targetPoint" />
            <Array as="points">
              <mxPoint x="100" y="73" />
            </Array>
          </mxGeometry>
        </mxCell>
        <mxCell id="RBcyhpeaUslQ7d-_BxSG-18" value="PortmonePayment" style="shape=module;align=left;spacingLeft=20;align=center;verticalAlign=top;" vertex="1" parent="1">
          <mxGeometry x="915" y="10" width="345" height="320" as="geometry" />
        </mxCell>
        <mxCell id="RBcyhpeaUslQ7d-_BxSG-19" value="API" style="html=1;" vertex="1" parent="1">
          <mxGeometry x="1039" y="200" width="110" height="50" as="geometry" />
        </mxCell>
        <mxCell id="RBcyhpeaUslQ7d-_BxSG-20" value="query for order" style="edgeStyle=orthogonalEdgeStyle;rounded=0;orthogonalLoop=1;jettySize=auto;html=1;exitX=1;exitY=0.75;exitDx=0;exitDy=0;entryX=0;entryY=0.75;entryDx=0;entryDy=0;" edge="1" parent="1" source="RBcyhpeaUslQ7d-_BxSG-21" target="RBcyhpeaUslQ7d-_BxSG-23">
          <mxGeometry relative="1" as="geometry" />
        </mxCell>
        <mxCell id="RBcyhpeaUslQ7d-_BxSG-21" value="Controllers" style="html=1;" vertex="1" parent="1">
          <mxGeometry x="1039" y="50" width="110" height="50" as="geometry" />
        </mxCell>
        <mxCell id="RBcyhpeaUslQ7d-_BxSG-22" value="Admin panel" style="html=1;" vertex="1" parent="1">
          <mxGeometry x="780" y="150" width="110" height="50" as="geometry" />
        </mxCell>
        <mxCell id="RBcyhpeaUslQ7d-_BxSG-23" value="Database" style="html=1;" vertex="1" parent="1">
          <mxGeometry x="1360" y="50" width="110" height="50" as="geometry" />
        </mxCell>
        <mxCell id="RBcyhpeaUslQ7d-_BxSG-24" value="Portmone service" style="html=1;" vertex="1" parent="1">
          <mxGeometry x="1039" y="360" width="110" height="50" as="geometry" />
        </mxCell>
        <mxCell id="RBcyhpeaUslQ7d-_BxSG-25" value="pass order data" style="html=1;verticalAlign=bottom;endArrow=block;rounded=0;entryX=0.25;entryY=0;entryDx=0;entryDy=0;exitX=0.25;exitY=1;exitDx=0;exitDy=0;" edge="1" parent="1" source="RBcyhpeaUslQ7d-_BxSG-21" target="RBcyhpeaUslQ7d-_BxSG-19">
          <mxGeometry width="80" relative="1" as="geometry">
            <mxPoint x="890" y="160" as="sourcePoint" />
            <mxPoint x="975" y="160" as="targetPoint" />
          </mxGeometry>
        </mxCell>
        <mxCell id="RBcyhpeaUslQ7d-_BxSG-26" value="request for order status" style="html=1;verticalAlign=bottom;endArrow=block;rounded=0;exitX=0.25;exitY=1;exitDx=0;exitDy=0;entryX=0.25;entryY=0;entryDx=0;entryDy=0;" edge="1" parent="1" source="RBcyhpeaUslQ7d-_BxSG-19" target="RBcyhpeaUslQ7d-_BxSG-24">
          <mxGeometry x="-0.5333" width="80" relative="1" as="geometry">
            <mxPoint x="1105" y="300" as="sourcePoint" />
            <mxPoint x="1185" y="300" as="targetPoint" />
            <Array as="points" />
            <mxPoint as="offset" />
          </mxGeometry>
        </mxCell>
        <mxCell id="RBcyhpeaUslQ7d-_BxSG-27" value="return status" style="html=1;verticalAlign=bottom;endArrow=open;dashed=1;endSize=8;rounded=0;entryX=0.75;entryY=1;entryDx=0;entryDy=0;exitX=0.75;exitY=0;exitDx=0;exitDy=0;" edge="1" parent="1" source="RBcyhpeaUslQ7d-_BxSG-24" target="RBcyhpeaUslQ7d-_BxSG-19">
          <mxGeometry x="-0.3333" relative="1" as="geometry">
            <mxPoint x="1185" y="300" as="sourcePoint" />
            <mxPoint x="1105" y="300" as="targetPoint" />
            <mxPoint as="offset" />
          </mxGeometry>
        </mxCell>
        <mxCell id="RBcyhpeaUslQ7d-_BxSG-28" value="return order status" style="html=1;verticalAlign=bottom;endArrow=open;dashed=1;endSize=8;rounded=0;entryX=0.75;entryY=1;entryDx=0;entryDy=0;exitX=0.75;exitY=0;exitDx=0;exitDy=0;" edge="1" parent="1" source="RBcyhpeaUslQ7d-_BxSG-19" target="RBcyhpeaUslQ7d-_BxSG-21">
          <mxGeometry x="-0.4" relative="1" as="geometry">
            <mxPoint x="975" y="188" as="sourcePoint" />
            <mxPoint x="895" y="190" as="targetPoint" />
            <mxPoint as="offset" />
          </mxGeometry>
        </mxCell>
        <mxCell id="RBcyhpeaUslQ7d-_BxSG-29" value="request for order info" style="html=1;verticalAlign=bottom;endArrow=block;rounded=0;entryX=0;entryY=0.25;entryDx=0;entryDy=0;exitX=0.5;exitY=0;exitDx=0;exitDy=0;" edge="1" parent="1" source="RBcyhpeaUslQ7d-_BxSG-22" target="RBcyhpeaUslQ7d-_BxSG-21">
          <mxGeometry width="80" relative="1" as="geometry">
            <mxPoint x="855" y="70" as="sourcePoint" />
            <mxPoint x="1035" y="74.5" as="targetPoint" />
            <Array as="points">
              <mxPoint x="835" y="100" />
              <mxPoint x="835" y="60" />
            </Array>
          </mxGeometry>
        </mxCell>
        <mxCell id="RBcyhpeaUslQ7d-_BxSG-31" value="return order information" style="html=1;verticalAlign=bottom;endArrow=open;dashed=1;endSize=8;rounded=0;entryX=1;entryY=0.25;entryDx=0;entryDy=0;exitX=0;exitY=0.25;exitDx=0;exitDy=0;" edge="1" parent="1" source="RBcyhpeaUslQ7d-_BxSG-23" target="RBcyhpeaUslQ7d-_BxSG-21">
          <mxGeometry x="-0.4" relative="1" as="geometry">
            <mxPoint x="1340" y="10" as="sourcePoint" />
            <mxPoint x="1340" y="-90" as="targetPoint" />
            <mxPoint as="offset" />
          </mxGeometry>
        </mxCell>
        <mxCell id="RBcyhpeaUslQ7d-_BxSG-32" value="return succes/error" style="html=1;verticalAlign=bottom;endArrow=open;dashed=1;endSize=8;rounded=0;entryX=0.75;entryY=0;entryDx=0;entryDy=0;exitX=0;exitY=0.75;exitDx=0;exitDy=0;" edge="1" parent="1" source="RBcyhpeaUslQ7d-_BxSG-5" target="RBcyhpeaUslQ7d-_BxSG-8">
          <mxGeometry x="-0.4" relative="1" as="geometry">
            <mxPoint x="230" y="235" as="sourcePoint" />
            <mxPoint x="230" y="135" as="targetPoint" />
            <mxPoint as="offset" />
            <Array as="points">
              <mxPoint x="128" y="98" />
            </Array>
          </mxGeometry>
        </mxCell>
        <mxCell id="RBcyhpeaUslQ7d-_BxSG-33" value="return order information" style="html=1;verticalAlign=bottom;endArrow=open;dashed=1;endSize=8;rounded=0;entryX=0.75;entryY=0;entryDx=0;entryDy=0;exitX=0;exitY=0.75;exitDx=0;exitDy=0;" edge="1" parent="1" source="RBcyhpeaUslQ7d-_BxSG-21" target="RBcyhpeaUslQ7d-_BxSG-22">
          <mxGeometry x="-0.4" relative="1" as="geometry">
            <mxPoint x="991" y="130" as="sourcePoint" />
            <mxPoint x="780" y="130" as="targetPoint" />
            <mxPoint as="offset" />
            <Array as="points">
              <mxPoint x="863" y="88" />
            </Array>
          </mxGeometry>
        </mxCell>
      </root>
    </mxGraphModel>
  </diagram>
</mxfile>
